<svg xmlns="http://www.w3.org/2000/svg" xmlns:xlink="http://www.w3.org/1999/xlink" width="66.888" height="70.339" viewBox="0 0 66.888 70.339">
  <defs>
    <radialGradient id="radial-gradient" cx="0.5" cy="0.5" r="0.5" gradientUnits="objectBoundingBox">
      <stop offset="0" stop-color="#000056"/>
      <stop offset="0.386" stop-color="#7373a2" stop-opacity="0.549"/>
      <stop offset="0.784" stop-color="#d8d8e5" stop-opacity="0.149"/>
      <stop offset="1" stop-color="#fff" stop-opacity="0"/>
    </radialGradient>
  </defs>
  <g id="Group_16" data-name="Group 16" transform="translate(-178.382 -1949)">
    <circle id="Ellipse_24" data-name="Ellipse 24" cx="33.444" cy="33.444" r="33.444" transform="translate(178.382 1952.451)" opacity="0.8" fill="url(#radial-gradient)" style="mix-blend-mode: multiply;isolation: isolate"/>
    <circle id="Ellipse_25" data-name="Ellipse 25" cx="23.286" cy="23.286" r="23.286" transform="translate(179.538 1949)" fill="#4b592f"/>
    <g id="Group_14" data-name="Group 14" transform="translate(189.172 1958.602)">
      <g id="Group_13" data-name="Group 13" transform="translate(0)">
        <path id="Path_83" data-name="Path 83" d="M96.943,68.693a1.6,1.6,0,1,0,1.6,1.6A1.6,1.6,0,0,0,96.943,68.693Z" transform="translate(-76.062 -63.818)" fill="#fff"/>
        <path id="Path_84" data-name="Path 84" d="M94.38,69.982a6.724,6.724,0,1,0,6.724,6.724A6.732,6.732,0,0,0,94.38,69.982Zm0,11.03a4.307,4.307,0,1,1,4.308-4.306A4.311,4.311,0,0,1,94.38,81.012Z" transform="translate(-80.617 -63.054)" fill="#fff"/>
        <path id="Path_85" data-name="Path 85" d="M102.337,92.934h-10.9a8.209,8.209,0,0,1-8.2-8.2v-10.9a8.21,8.21,0,0,1,8.2-8.2h10.9a8.211,8.211,0,0,1,8.2,8.2v10.9A8.21,8.21,0,0,1,102.337,92.934ZM91.438,68.2A5.638,5.638,0,0,0,85.8,73.832v10.9a5.639,5.639,0,0,0,5.633,5.633h10.9a5.64,5.64,0,0,0,5.633-5.633v-10.9a5.639,5.639,0,0,0-5.633-5.631Z" transform="translate(-83.236 -65.632)" fill="#fff"/>
      </g>
    </g>
  </g>
</svg>
