<svg xmlns="http://www.w3.org/2000/svg" width="45" height="45" viewBox="0 0 45 45">
  <g id="Group_8" data-name="Group 8" transform="translate(-230 -2219)">
    <g id="Ellipse_23" data-name="Ellipse 23" transform="translate(230 2219)" fill="#fff" stroke="#414141" stroke-width="1">
      <circle cx="22.5" cy="22.5" r="22.5" stroke="none"/>
      <circle cx="22.5" cy="22.5" r="22" fill="none"/>
    </g>
    <g id="bxl-instagram" transform="translate(236.893 2225.891)">
      <path id="Path_2" data-name="Path 2" d="M16.768,11.066a5.706,5.706,0,1,0,5.706,5.706,5.706,5.706,0,0,0-5.706-5.706Zm0,9.412a3.707,3.707,0,1,1,3.707-3.707,3.707,3.707,0,0,1-3.707,3.707Z" transform="translate(-1.163 -1.163)" fill="#414141"/>
      <path id="Path_3" data-name="Path 3" d="M26.252,10.523a1.33,1.33,0,1,1-1.33-1.33A1.33,1.33,0,0,1,26.252,10.523Z" transform="translate(-3.386 -0.831)" fill="#414141"/>
      <path id="Path_4" data-name="Path 4" d="M26.135,8.34a5.683,5.683,0,0,0-3.249-3.247,8.151,8.151,0,0,0-2.7-.518c-1.188-.052-1.565-.067-4.578-.067s-3.4,0-4.578.067a8.087,8.087,0,0,0-2.695.518A5.676,5.676,0,0,0,5.089,8.341a8.125,8.125,0,0,0-.517,2.7C4.519,12.225,4.5,12.6,4.5,15.616s0,3.4.069,4.578a8.133,8.133,0,0,0,.517,2.7,5.688,5.688,0,0,0,3.25,3.248,8.124,8.124,0,0,0,2.7.555c1.188.052,1.565.068,4.578.068s3.4,0,4.578-.068a8.162,8.162,0,0,0,2.7-.517,5.693,5.693,0,0,0,3.249-3.249,8.1,8.1,0,0,0,.517-2.7c.053-1.187.069-1.563.069-4.578s0-3.4-.069-4.578a8.121,8.121,0,0,0-.519-2.735ZM24.632,20.1a6.223,6.223,0,0,1-.384,2.083A3.686,3.686,0,0,1,22.136,24.3a6.151,6.151,0,0,1-2.061.384c-1.172.054-1.5.068-4.509.068s-3.315,0-4.51-.068A6.12,6.12,0,0,1,9,24.3a3.684,3.684,0,0,1-2.122-2.112,6.268,6.268,0,0,1-.384-2.059c-.053-1.172-.066-1.5-.066-4.509s0-3.314.066-4.51a6.217,6.217,0,0,1,.384-2.081A3.687,3.687,0,0,1,9,6.913a6.182,6.182,0,0,1,2.059-.384c1.173-.053,1.5-.068,4.51-.068s3.315,0,4.509.068a6.12,6.12,0,0,1,2.061.384,3.691,3.691,0,0,1,2.112,2.112,6.268,6.268,0,0,1,.384,2.059c.053,1.173.067,1.5.067,4.51s0,3.329-.053,4.509h-.014Z" fill="#414141"/>
    </g>
  </g>
</svg>
