<svg xmlns="http://www.w3.org/2000/svg" width="38.551" height="38.538" viewBox="0 0 38.551 38.538">
  <path id="instagram-filled" d="M23.288,19.71a3.8,3.8,0,1,0-3.8,3.782A3.8,3.8,0,0,0,23.288,19.71ZM28.932.022H9.65A9.624,9.624,0,0,0,.016,9.614v2.673H14.193a9.151,9.151,0,0,1,10.592,0H38.566V9.614A9.623,9.623,0,0,0,28.932.022Zm3.9,9.123a1.071,1.071,0,0,1-1.071,1.065H28.455a1.072,1.072,0,0,1-1.071-1.065V5.852a1.071,1.071,0,0,1,1.071-1.065h3.308a1.071,1.071,0,0,1,1.071,1.065ZM28.64,19.71a9.151,9.151,0,0,1-18.3,0,9.023,9.023,0,0,1,.869-3.87H.016V28.968A9.623,9.623,0,0,0,9.65,38.56H28.932a9.624,9.624,0,0,0,9.634-9.592V15.839H27.77a9.027,9.027,0,0,1,.869,3.87Z" transform="translate(-0.016 -0.022)"/>
</svg>
